<svg width="148" height="40" viewBox="0 0 148 40" fill="none" xmlns="http://www.w3.org/2000/svg">
  <rect width="148" height="40" rx="20" fill="url(#paint0_linear)" opacity="0"/>
  <path d="M19.857 29.333C12.476 29.333 7.143 24.096 7.143 17.143C7.143 10.19 12.476 4.953 19.857 4.953C24.905 4.953 28.857 7.524 30.857 11.524L26.762 13.619C25.381 10.905 22.952 9.19 19.857 9.19C14.571 9.19 11.048 13.333 11.048 17.143C11.048 20.953 14.381 25.096 19.857 25.096C22.952 25.096 25.381 23.381 26.762 20.667L30.857 22.762C28.857 26.762 24.905 29.333 19.857 29.333ZM45.381 29H41.476V21.381C41.476 18.857 40.286 17.667 38.381 17.667C36.476 17.667 35.286 18.857 35.286 21.381V29H31.381V12.381H35.286V16.095C36.381 14.667 37.952 13.81 40.095 13.81C43.476 13.81 45.381 15.905 45.381 19.762V29ZM58.857 13.81C62.381 13.81 64.476 15.905 64.476 19.762V29H60.571V21.381C60.571 18.857 59.381 17.667 57.476 17.667C55.571 17.667 54.381 18.857 54.381 21.381V29H50.476V12.381H54.381V16.095C55.476 14.667 57.048 13.81 59.19 13.81H58.857ZM76.571 29H72.667V21.381C72.667 18.857 71.476 17.667 69.571 17.667C67.667 17.667 66.476 18.857 66.476 21.381V29H62.571V12.381H66.476V16.095C67.571 14.667 69.143 13.81 71.286 13.81C74.667 13.81 76.571 15.905 76.571 19.762V29ZM85.571 13.81C89.476 13.81 91.762 16 91.762 19.571V29H87.857V26.19C86.667 28 84.714 29.095 82 29.095C78.286 29.095 75.524 26.81 75.524 23.476C75.524 20.048 78.524 18.095 83.476 18.095H87.857C87.714 16.19 86.429 15.19 84.381 15.19C82.333 15.19 80.714 16.143 79.905 17.905L76.143 16C77.667 14.048 80.333 13.81 82.524 13.81H85.571ZM84 25.952C86.333 25.952 87.857 24.381 87.857 22.19V21.762H83.714C81.619 21.762 80.571 22.524 80.571 23.952C80.571 25.424 81.905 25.952 83.952 25.952H84ZM104.667 29H100.762V12.381H104.667V29ZM122 29H117.571L110.857 19.667L110.571 19.905V29H106.667V12.381H110.857L117.333 21.238L117.571 21V12.381H121.476V29H122ZM134.762 29.333C129.905 29.333 126.286 26.81 125.333 23.048L129.333 21.667C129.952 24.048 132.095 25.523 134.81 25.523C137.571 25.523 139.381 24.238 139.381 22.476C139.381 20.857 138.19 20 134.952 19.333C128.81 18.095 126 16.381 126 12.619C126 8.81004 129.333 6.14304 134.238 6.14304C138.667 6.14304 141.905 8.14304 143 11.429L139.19 12.952C138.524 11.238 136.667 10.143 134.238 10.143C131.429 10.143 129.857 11.286 129.857 12.905C129.857 14.572 131.095 15.238 134.714 15.952C140.524 17.143 143.381 18.905 143.381 22.619C143.381 26.667 140 29.333 134.762 29.333Z" fill="white"/>
  <defs>
    <linearGradient id="paint0_linear" x1="0" y1="0" x2="148" y2="40" gradientUnits="userSpaceOnUse">
      <stop stop-color="#ffffff" stop-opacity="0.8"/>
      <stop offset="1" stop-color="#ffffff" stop-opacity="0.2"/>
    </linearGradient>
  </defs>
</svg>
