<?xml version="1.0" encoding="UTF-8" standalone="no"?>
<!DOCTYPE svg PUBLIC "-//W3C//DTD SVG 1.1//EN" "http://www.w3.org/Graphics/SVG/1.1/DTD/svg11.dtd">
<svg width="100%" height="100%" viewBox="0 0 24 24" version="1.1" xmlns="http://www.w3.org/2000/svg" xmlns:xlink="http://www.w3.org/1999/xlink" xml:space="preserve" xmlns:serif="http://www.serif.com/" style="fill-rule:evenodd;clip-rule:evenodd;stroke-linecap:round;stroke-linejoin:round;">
    <rect x="0" y="0" width="24" height="24" style="fill:none;fill-rule:nonzero;"/>
    <path d="M3,17C3,15.903 3.903,15 5,15L7,15C8.097,15 9,15.903 9,17L9,19C9,20.097 8.097,21 7,21L5,21C3.903,21 3,20.097 3,19L3,17Z" style="fill:none;fill-rule:nonzero;stroke:rgb(129,52,187);stroke-width:2px;"/>
    <path d="M15,17C15,15.903 15.903,15 17,15L19,15C20.097,15 21,15.903 21,17L21,19C21,20.097 20.097,21 19,21L17,21C15.903,21 15,20.097 15,19L15,17Z" style="fill:none;fill-rule:nonzero;stroke:rgb(129,52,187);stroke-width:2px;"/>
    <path d="M9,5C9,3.903 9.903,3 11,3L13,3C14.097,3 15,3.903 15,5L15,7C15,8.097 14.097,9 13,9L11,9C9.903,9 9,8.097 9,7L9,5Z" style="fill:none;fill-rule:nonzero;stroke:rgb(129,52,187);stroke-width:2px;"/>
    <path d="M6,15L6,14C6,12.903 6.903,12 8,12L16,12C17.097,12 18,12.903 18,14L18,15" style="fill:none;fill-rule:nonzero;stroke:rgb(129,52,187);stroke-width:2px;"/>
    <path d="M12,9L12,12" style="fill:none;fill-rule:nonzero;stroke:rgb(129,52,187);stroke-width:2px;"/>
</svg>
