<?xml version="1.0" encoding="UTF-8" standalone="no"?>
<!DOCTYPE svg PUBLIC "-//W3C//DTD SVG 1.1//EN" "http://www.w3.org/Graphics/SVG/1.1/DTD/svg11.dtd">
<svg width="100%" height="100%" viewBox="0 0 164 115" version="1.1" xmlns="http://www.w3.org/2000/svg" xmlns:xlink="http://www.w3.org/1999/xlink" xml:space="preserve" xmlns:serif="http://www.serif.com/" style="fill-rule:evenodd;clip-rule:evenodd;stroke-linejoin:round;stroke-miterlimit:2;">
    <path d="M159.865,17.849C163.265,30.578 163.279,57.15 163.279,57.15C163.279,57.15 163.279,83.723 159.865,96.452C157.984,103.481 152.459,109.005 145.429,110.887C132.701,114.301 81.639,114.301 81.639,114.301C81.639,114.301 30.578,114.301 17.849,110.887C10.82,109.005 5.296,103.481 3.414,96.452C0,83.723 0,57.15 0,57.15C0,57.15 0,30.578 3.414,17.849C5.296,10.82 10.82,5.296 17.849,3.414C30.578,0 81.639,0 81.639,0C81.639,0 132.701,0 145.429,3.414C152.459,5.296 157.984,10.82 159.865,17.849ZM65.296,81.642L107.715,57.153L65.296,32.663L65.296,81.642Z" style="fill:white;fill-rule:nonzero;"/>
</svg>
