<svg width="48" height="48" viewBox="0 0 48 48" fill="none" xmlns="http://www.w3.org/2000/svg">
<g clip-path="url(#clip0_2034_60)">
<path d="M40.673 0.865967H7.32705C3.75869 0.865967 0.865967 3.75869 0.865967 7.32705V40.673C0.865967 44.2414 3.75869 47.1341 7.32705 47.1341H40.673C44.2414 47.1341 47.1341 44.2414 47.1341 40.673V7.32705C47.1341 3.75869 44.2414 0.865967 40.673 0.865967Z" stroke="white" stroke-width="0.96" stroke-linejoin="round"/>
<path d="M17.3036 32.7128H15.9896C15.9656 32.5428 15.9166 32.3918 15.8426 32.2598C15.7686 32.1258 15.6736 32.0118 15.5576 31.9178C15.4416 31.8238 15.3076 31.7518 15.1556 31.7018C15.0056 31.6518 14.8426 31.6268 14.6666 31.6268C14.3486 31.6268 14.0716 31.7058 13.8356 31.8638C13.5996 32.0198 13.4166 32.2478 13.2866 32.5478C13.1566 32.8458 13.0916 33.2078 13.0916 33.6338C13.0916 34.0718 13.1566 34.4398 13.2866 34.7378C13.4186 35.0358 13.6026 35.2608 13.8386 35.4128C14.0746 35.5648 14.3476 35.6408 14.6576 35.6408C14.8316 35.6408 14.9926 35.6178 15.1406 35.5718C15.2906 35.5258 15.4236 35.4588 15.5396 35.3708C15.6556 35.2808 15.7516 35.1718 15.8276 35.0438C15.9056 34.9158 15.9596 34.7698 15.9896 34.6058L17.3036 34.6118C17.2696 34.8938 17.1846 35.1658 17.0486 35.4278C16.9146 35.6878 16.7336 35.9208 16.5056 36.1268C16.2796 36.3308 16.0096 36.4928 15.6956 36.6128C15.3836 36.7308 15.0306 36.7898 14.6366 36.7898C14.0886 36.7898 13.5986 36.6658 13.1666 36.4178C12.7366 36.1698 12.3966 35.8108 12.1466 35.3408C11.8986 34.8708 11.7746 34.3018 11.7746 33.6338C11.7746 32.9638 11.9006 32.3938 12.1526 31.9238C12.4046 31.4538 12.7466 31.0958 13.1786 30.8498C13.6106 30.6018 14.0966 30.4778 14.6366 30.4778C14.9926 30.4778 15.3226 30.5278 15.6266 30.6278C15.9326 30.7278 16.2036 30.8738 16.4396 31.0658C16.6756 31.2558 16.8676 31.4888 17.0156 31.7648C17.1656 32.0408 17.2616 32.3568 17.3036 32.7128ZM23.6561 32.7128H22.3421C22.3181 32.5428 22.2691 32.3918 22.1951 32.2598C22.1211 32.1258 22.0261 32.0118 21.9101 31.9178C21.7941 31.8238 21.6601 31.7518 21.5081 31.7018C21.3581 31.6518 21.1951 31.6268 21.0191 31.6268C20.7011 31.6268 20.4241 31.7058 20.1881 31.8638C19.9521 32.0198 19.7691 32.2478 19.6391 32.5478C19.5091 32.8458 19.4441 33.2078 19.4441 33.6338C19.4441 34.0718 19.5091 34.4398 19.6391 34.7378C19.7711 35.0358 19.9551 35.2608 20.1911 35.4128C20.4271 35.5648 20.7001 35.6408 21.0101 35.6408C21.1841 35.6408 21.3451 35.6178 21.4931 35.5718C21.6431 35.5258 21.7761 35.4588 21.8921 35.3708C22.0081 35.2808 22.1041 35.1718 22.1801 35.0438C22.2581 34.9158 22.3121 34.7698 22.3421 34.6058L23.6561 34.6118C23.6221 34.8938 23.5371 35.1658 23.4011 35.4278C23.2671 35.6878 23.0861 35.9208 22.8581 36.1268C22.6321 36.3308 22.3621 36.4928 22.0481 36.6128C21.7361 36.7308 21.3831 36.7898 20.9891 36.7898C20.4411 36.7898 19.9511 36.6658 19.5191 36.4178C19.0891 36.1698 18.7491 35.8108 18.4991 35.3408C18.2511 34.8708 18.1271 34.3018 18.1271 33.6338C18.1271 32.9638 18.2531 32.3938 18.5051 31.9238C18.7571 31.4538 19.0991 31.0958 19.5311 30.8498C19.9631 30.6018 20.4491 30.4778 20.9891 30.4778C21.3451 30.4778 21.6751 30.5278 21.9791 30.6278C22.2851 30.7278 22.5561 30.8738 22.7921 31.0658C23.0281 31.2558 23.2201 31.4888 23.3681 31.7648C23.5181 32.0408 23.6141 32.3568 23.6561 32.7128ZM24.5876 36.7058V30.5618H27.0116C27.4776 30.5618 27.8746 30.6508 28.2026 30.8288C28.5306 31.0048 28.7806 31.2498 28.9526 31.5638C29.1266 31.8758 29.2136 32.2358 29.2136 32.6438C29.2136 33.0518 29.1256 33.4118 28.9496 33.7238C28.7736 34.0358 28.5186 34.2788 28.1846 34.4528C27.8526 34.6268 27.4506 34.7138 26.9786 34.7138H25.4336V33.6728H26.7686C27.0186 33.6728 27.2246 33.6298 27.3866 33.5438C27.5506 33.4558 27.6726 33.3348 27.7526 33.1808C27.8346 33.0248 27.8756 32.8458 27.8756 32.6438C27.8756 32.4398 27.8346 32.2618 27.7526 32.1098C27.6726 31.9558 27.5506 31.8368 27.3866 31.7528C27.2226 31.6668 27.0146 31.6238 26.7626 31.6238H25.8866V36.7058H24.5876ZM30.4069 36.7058H29.0149L31.1359 30.5618H32.8099L34.9279 36.7058H33.5359L31.9969 31.9658H31.9489L30.4069 36.7058ZM30.3199 34.2908H33.6079V35.3048H30.3199V34.2908Z" fill="white"/>
<path d="M9.06839 39.9694H8.50475C8.47142 39.8073 8.41308 39.6649 8.32975 39.5421C8.24793 39.4194 8.14793 39.3164 8.02975 39.2331C7.91308 39.1482 7.78353 39.0846 7.64111 39.0421C7.49869 38.9997 7.3502 38.9785 7.19565 38.9785C6.91383 38.9785 6.65853 39.0497 6.42974 39.1921C6.20247 39.3346 6.0214 39.5444 5.88656 39.8217C5.75322 40.099 5.68655 40.4391 5.68655 40.8421C5.68655 41.2452 5.75322 41.5853 5.88656 41.8626C6.0214 42.1399 6.20247 42.3497 6.42974 42.4922C6.65853 42.6346 6.91383 42.7058 7.19565 42.7058C7.3502 42.7058 7.49869 42.6846 7.64111 42.6422C7.78353 42.5997 7.91308 42.5369 8.02975 42.4535C8.14793 42.3687 8.24793 42.2649 8.32975 42.1422C8.41308 42.0179 8.47142 41.8755 8.50475 41.7149H9.06839C9.02597 41.9528 8.94869 42.1656 8.83657 42.3535C8.72445 42.5414 8.58505 42.7012 8.41839 42.8331C8.25172 42.9634 8.0646 43.0626 7.85702 43.1308C7.65096 43.199 7.4305 43.2331 7.19565 43.2331C6.79868 43.2331 6.44565 43.1361 6.13656 42.9422C5.82746 42.7482 5.58428 42.4725 5.40701 42.1149C5.22973 41.7573 5.1411 41.3331 5.1411 40.8421C5.1411 40.3512 5.22973 39.927 5.40701 39.5694C5.58428 39.2118 5.82746 38.9361 6.13656 38.7421C6.44565 38.5482 6.79868 38.4512 7.19565 38.4512C7.4305 38.4512 7.65096 38.4853 7.85702 38.5535C8.0646 38.6217 8.25172 38.7217 8.41839 38.8535C8.58505 38.9838 8.72445 39.1429 8.83657 39.3308C8.94869 39.5171 9.02597 39.73 9.06839 39.9694ZM13.9065 40.8421C13.9065 41.3331 13.8178 41.7573 13.6406 42.1149C13.4633 42.4725 13.2201 42.7482 12.911 42.9422C12.6019 43.1361 12.2489 43.2331 11.8519 43.2331C11.455 43.2331 11.1019 43.1361 10.7928 42.9422C10.4837 42.7482 10.2406 42.4725 10.0633 42.1149C9.88601 41.7573 9.79737 41.3331 9.79737 40.8421C9.79737 40.3512 9.88601 39.927 10.0633 39.5694C10.2406 39.2118 10.4837 38.9361 10.7928 38.7421C11.1019 38.5482 11.455 38.4512 11.8519 38.4512C12.2489 38.4512 12.6019 38.5482 12.911 38.7421C13.2201 38.9361 13.4633 39.2118 13.6406 39.5694C13.8178 39.927 13.9065 40.3512 13.9065 40.8421ZM13.361 40.8421C13.361 40.4391 13.2936 40.099 13.1588 39.8217C13.0254 39.5444 12.8444 39.3346 12.6156 39.1921C12.3883 39.0497 12.1337 38.9785 11.8519 38.9785C11.5701 38.9785 11.3148 39.0497 11.086 39.1921C10.8587 39.3346 10.6777 39.5444 10.5428 39.8217C10.4095 40.099 10.3428 40.4391 10.3428 40.8421C10.3428 41.2452 10.4095 41.5853 10.5428 41.8626C10.6777 42.1399 10.8587 42.3497 11.086 42.4922C11.3148 42.6346 11.5701 42.7058 11.8519 42.7058C12.1337 42.7058 12.3883 42.6346 12.6156 42.4922C12.8444 42.3497 13.0254 42.1399 13.1588 41.8626C13.2936 41.5853 13.361 41.2452 13.361 40.8421ZM14.8542 38.5149H15.5269L17.1088 42.3785H17.1633L18.7451 38.5149H19.4179V43.1694H18.8906V39.6331H18.8451L17.3906 43.1694H16.8815L15.4269 39.6331H15.3815V43.1694H14.8542V38.5149ZM20.548 43.1694V38.5149H22.1207C22.4859 38.5149 22.7844 38.5808 23.0162 38.7126C23.2495 38.8429 23.4223 39.0194 23.5344 39.2421C23.6465 39.4649 23.7026 39.7134 23.7026 39.9876C23.7026 40.2618 23.6465 40.5111 23.5344 40.7353C23.4238 40.9596 23.2526 41.1384 23.0207 41.2717C22.7889 41.4035 22.4919 41.4694 22.1298 41.4694H21.0025V40.9694H22.1116C22.3616 40.9694 22.5624 40.9262 22.7139 40.8399C22.8654 40.7535 22.9753 40.6368 23.0435 40.4899C23.1132 40.3414 23.148 40.174 23.148 39.9876C23.148 39.8012 23.1132 39.6346 23.0435 39.4876C22.9753 39.3406 22.8647 39.2255 22.7116 39.1421C22.5586 39.0573 22.3556 39.0149 22.1025 39.0149H21.1116V43.1694H20.548ZM24.6105 43.1694V38.5149H25.1742V42.6694H27.3378V43.1694H24.6105ZM28.7742 38.5149V43.1694H28.2105V38.5149H28.7742ZM30.0952 43.1694H29.5043L31.2134 38.5149H31.7952L33.5043 43.1694H32.9134L31.5225 39.2512H31.4861L30.0952 43.1694ZM30.3134 41.3512H32.6952V41.8512H30.3134V41.3512ZM37.9202 38.5149V43.1694H37.3748L34.8384 39.5149H34.793V43.1694H34.2293V38.5149H34.7748L37.3202 42.1785H37.3657V38.5149H37.9202ZM38.7935 39.0149V38.5149H42.2845V39.0149H40.8208V43.1694H40.2572V39.0149H38.7935Z" fill="white"/>
<path d="M14.6025 3.93677C14.6006 4.52381 14.6127 5.11162 14.5702 5.6977C14.5525 5.98867 14.5575 6.2807 14.5369 6.57149C14.4561 6.63293 14.3144 6.54442 14.2128 6.54C14.087 6.50966 13.9592 6.6072 13.9064 6.71664C13.8435 6.86458 13.857 7.02941 13.8423 7.18608C13.8289 7.51622 13.8052 7.86019 13.9365 8.17229C13.9644 8.25254 14.0071 8.32378 14.0584 8.3903C14.1316 8.49293 14.1818 8.6089 14.2365 8.72102C14.3869 8.92061 14.5786 9.09206 14.6966 9.3143C14.7475 9.50678 14.7443 9.70906 14.7576 9.90662C14.7734 10.1188 14.7292 10.3298 14.7432 10.5415C14.7662 10.7323 14.8066 10.9226 14.8673 11.105C14.9593 11.3093 15.1019 11.4855 15.2142 11.6786C15.3477 11.8841 15.4384 12.1135 15.521 12.343C15.5639 12.4486 15.641 12.5369 15.7367 12.5979C15.8559 12.6979 15.9588 12.8159 16.0416 12.9476C16.0118 13.0328 16.0119 13.1267 15.9847 13.2133C15.9682 13.3195 15.9475 13.4301 15.962 13.5372C16.0057 13.7424 16.1207 13.9304 16.2804 14.066C16.2116 13.9924 16.3476 14.1527 16.3687 14.1785C16.4551 14.2646 16.4756 14.4016 16.5868 14.4665C16.6972 14.541 16.8259 14.5842 16.9526 14.6217C17.0774 14.6433 17.2353 14.6273 17.3102 14.5118C17.3915 14.4034 17.5044 14.2998 17.5042 14.1538C17.509 14.053 17.4819 13.9877 17.461 13.9269C17.3986 13.8466 17.4323 13.716 17.4885 13.6999C17.4294 13.7032 17.597 13.721 17.6239 13.7361C17.7329 13.7665 17.8457 13.8049 17.9227 13.8925C17.8018 13.8964 17.6986 13.9994 17.6549 14.1066C17.5898 14.3075 17.7134 14.5067 17.83 14.6618C17.8638 14.6966 17.927 14.7924 17.9598 14.863C18.0251 14.9676 17.8969 14.9652 17.8486 14.8973C17.6907 14.8017 17.5018 14.7235 17.3144 14.7595C17.1464 14.7984 17.047 14.9861 17.0879 15.1498C17.1282 15.3239 17.2103 15.4854 17.2598 15.6571C17.3375 15.9066 17.3851 16.1682 17.5116 16.4C17.6748 16.7173 17.9217 16.9823 18.1808 17.2235C18.2496 17.2599 18.3785 17.3412 18.2816 17.3787C18.1416 17.504 17.9255 17.5184 17.8198 17.6855C17.709 17.8558 17.7623 18.0697 17.8158 18.2507C17.9137 18.5193 18.1255 18.7298 18.2119 19.0043C18.5692 19.4862 18.7492 20.0667 19.1642 20.3676C19.4806 20.655 19.8324 20.9041 20.1239 21.218C20.3001 21.4176 20.4121 21.6635 20.5178 21.905C20.5682 22.0541 20.5139 22.2104 20.4535 22.3477C20.3773 22.5467 20.3182 22.791 20.4382 22.9852C20.5403 23.1169 20.6414 23.2539 20.7742 23.3569C20.9345 23.4855 21.1501 23.5026 21.3469 23.4789C21.5884 23.4678 21.7945 23.6128 21.998 23.7215C22.3547 23.9212 22.6973 24.1462 23.063 24.3292C23.2068 24.4021 23.3733 24.4085 23.5156 24.4861C23.8919 24.6685 24.2455 24.8941 24.6217 25.077C24.8978 25.2609 25.2271 25.4705 25.4096 25.5955C25.5238 25.667 25.6348 25.7446 25.7552 25.8053C25.7913 25.8449 25.8969 25.9208 25.942 25.9906C26.0057 26.051 26.0179 26.1516 26.0505 26.2382C26.0799 26.365 26.1634 26.478 26.2842 26.5307C26.5205 26.7076 26.7402 26.9248 26.8498 27.2046C26.9597 27.4772 27.0604 27.7556 27.1256 28.0427C27.1596 28.1885 27.1292 28.2802 27.1678 28.4252C27.2005 28.532 27.2698 28.6656 27.3365 28.7372C27.453 28.7334 27.5311 28.7419 27.6362 28.7399C27.7294 28.7378 27.8637 28.7217 27.9728 28.7126C29.5494 28.5537 31.1261 28.3961 32.7014 28.2254C32.8818 28.1982 33.069 28.1906 33.2404 28.1237C33.3383 28.0633 33.4576 28.0004 33.4999 27.8877C33.5522 27.729 33.4695 27.5517 33.3466 27.4476C33.283 27.3806 33.1348 27.366 33.0931 27.3334C33.2253 27.2167 33.2859 27.0424 33.3026 26.8711C33.3266 26.724 33.3293 26.5721 33.2973 26.426C33.3036 26.4636 33.2852 26.274 33.285 26.2286C33.2749 25.9875 33.2597 25.7456 33.2706 25.5042C33.3067 25.3155 33.3682 25.1316 33.4244 24.9477C33.5974 24.8692 33.7751 24.7935 33.92 24.6672C34.0639 24.5775 34.1995 24.4196 34.1619 24.2387C34.1312 24.0553 33.9661 23.9359 33.8098 23.8592C33.7398 23.7881 33.7003 23.6883 33.6162 23.6278C33.4492 23.5034 33.3758 23.3004 33.3044 23.1131C33.2321 22.8919 33.2406 22.6305 33.0673 22.4545C32.2982 21.6613 31.5141 20.8827 30.7362 20.0981C28.1475 17.4957 25.5602 14.892 22.9725 12.2887C22.8669 12.1817 22.7611 12.0748 22.6564 11.9669C22.6366 11.3317 22.6432 10.6959 22.6378 10.0605C22.6297 8.23949 22.628 6.41837 22.6067 4.59744C22.6028 4.49462 22.618 4.37962 22.5445 4.296C22.4474 4.19011 22.2919 4.22189 22.1637 4.20778C19.912 4.12522 17.66 4.05418 15.4082 3.9767C15.1393 3.96998 14.8709 3.95328 14.6024 3.93677H14.6025ZM15.1891 4.54886C16.5864 4.59062 17.9832 4.64621 19.3805 4.6895C20.2657 4.72032 21.151 4.74643 22.0361 4.78061C22.054 6.51581 22.0521 8.25101 22.0636 9.9864C22.067 10.7298 22.0739 11.4733 22.0799 12.2169C25.0859 15.2361 28.089 18.258 31.0931 21.279C31.6049 21.7963 32.1212 22.3094 32.6271 22.8325C32.6491 22.86 32.6809 23.0097 32.7001 23.0946C32.7334 23.2404 32.768 23.3876 32.8431 23.5185C32.9096 23.6766 32.9957 23.827 33.117 23.9496C33.2159 24.0512 33.3052 24.1634 33.4099 24.2584C33.4812 24.3085 33.3107 24.3532 33.2624 24.3861C33.1088 24.4519 32.9337 24.5369 32.888 24.7135C32.8013 25.0062 32.6925 25.2996 32.691 25.6089C32.6719 25.9192 32.6929 26.2298 32.7341 26.5376C32.7501 26.6412 32.7498 26.7469 32.7182 26.8475C32.7026 26.9699 32.5474 27.0059 32.5038 27.12C32.4393 27.2576 32.4678 27.4182 32.5051 27.5595C32.5326 27.6145 32.5941 27.6816 32.4874 27.6676C31.9267 27.7277 31.3658 27.7859 30.8054 27.8485C29.8047 27.9504 28.8041 28.0538 27.803 28.1515C27.6492 28.2072 27.7302 27.9892 27.6849 27.9045C27.619 27.5986 27.5126 27.3023 27.3934 27.0133C27.2683 26.7113 27.0801 26.4354 26.8324 26.2206C26.7691 26.1219 26.592 26.0992 26.5808 25.9886C26.516 25.7689 26.3806 25.5773 26.21 25.4265C26.1075 25.3115 25.9578 25.2638 25.8343 25.1772C25.6876 25.08 25.3883 24.9077 25.3622 24.8753C25.0814 24.6296 24.7282 24.4929 24.4086 24.3072C24.0748 24.1249 23.7494 23.9078 23.3714 23.8289C23.1656 23.7444 22.9799 23.6174 22.7858 23.5092C22.4659 23.3267 22.1556 23.1228 21.8143 22.9809C21.5973 22.8966 21.359 22.8834 21.1296 22.9031C21.0655 22.8282 20.9227 22.7457 20.9675 22.6328C21.0411 22.4351 21.1246 22.2324 21.1113 22.0167C21.1121 21.7243 20.9606 21.4633 20.8262 21.2134C20.6294 20.849 20.303 20.5819 19.9967 20.3133C19.8349 20.1756 19.6691 20.0418 19.5133 19.8974C18.7054 18.8503 18.7379 18.6864 18.4188 18.1708C18.3758 18.1082 18.3057 17.9988 18.4176 17.9756C18.623 17.8689 18.8478 17.7167 18.8885 17.4706C18.9376 17.2434 18.8432 17.003 18.6688 16.854C18.5884 16.7881 18.498 16.7361 18.4274 16.6581C18.2079 16.43 17.9964 16.1744 17.9177 15.8604C17.8842 15.7414 17.8528 15.622 17.813 15.5049C17.9304 15.5721 18.0715 15.5523 18.1905 15.4991C18.4581 15.3794 18.6455 15.0546 18.5428 14.7658C18.4929 14.6144 18.4132 14.4736 18.3153 14.3482C18.4291 14.2205 18.5259 14.0582 18.5267 13.8826C18.5274 13.6963 18.4088 13.5384 18.2687 13.4272C18.0435 13.2258 17.7348 13.132 17.4362 13.1298C17.2523 13.1308 17.0866 13.2356 16.9783 13.3796C16.8835 13.4914 16.8014 13.6311 16.8282 13.7835C16.8453 13.8475 16.8476 13.8786 16.8099 13.806C16.7306 13.6729 16.5951 13.5802 16.5299 13.4388C16.5407 13.2266 16.633 13.0189 16.5897 12.8042C16.5607 12.6208 16.4318 12.4729 16.3136 12.3378C16.2414 12.2397 16.1126 12.1813 16.0486 12.0861C15.9116 11.6887 15.6902 11.3291 15.4583 10.9811C15.3962 10.9004 15.3776 10.8021 15.3581 10.7055C15.3021 10.5108 15.3187 10.3078 15.3327 10.1088C15.3365 9.81437 15.3087 9.52003 15.2746 9.22781C15.2064 8.92022 14.9727 8.6929 14.7709 8.46586C14.6633 8.30227 14.5942 8.11421 14.471 7.96032C14.494 7.97184 14.427 7.8359 14.429 7.78829C14.4005 7.61069 14.416 7.42925 14.4168 7.25011C14.3859 7.09507 14.5777 7.1977 14.668 7.15066C14.9132 7.10765 15.1003 6.87389 15.1073 6.62803C15.1285 6.15437 15.1478 5.68051 15.1778 5.20742C15.1867 4.98797 15.1841 4.76842 15.1891 4.54886ZM14.9331 10.8192C14.9424 10.8516 14.939 10.8621 14.9331 10.8192Z" fill="white"/>
</g>
<defs>
<clipPath id="clip0_2034_60">
<rect width="48" height="48" fill="white"/>
</clipPath>
</defs>
</svg>
