<?xml version="1.0" encoding="UTF-8" standalone="no"?>
<!DOCTYPE svg PUBLIC "-//W3C//DTD SVG 1.1//EN" "http://www.w3.org/Graphics/SVG/1.1/DTD/svg11.dtd">
<svg width="100%" height="100%" viewBox="0 0 24 24" version="1.1" xmlns="http://www.w3.org/2000/svg" xmlns:xlink="http://www.w3.org/1999/xlink" xml:space="preserve" xmlns:serif="http://www.serif.com/" style="fill-rule:evenodd;clip-rule:evenodd;stroke-linecap:round;stroke-linejoin:round;">
    <rect x="0" y="0" width="24" height="24" style="fill:none;fill-rule:nonzero;"/>
    <g>
        <path d="M6.331,8L17.67,8C18.767,8 19.67,8.903 19.67,10C19.67,10.102 19.662,10.203 19.647,10.304L18.392,18.456C18.168,19.914 16.901,21 15.426,21L8.574,21C7.1,21 5.833,19.913 5.609,18.456L4.354,10.304C4.339,10.203 4.331,10.102 4.331,10C4.331,8.903 5.234,8 6.331,8Z" style="fill:none;fill-rule:nonzero;stroke:rgb(172,126,244);stroke-width:2px;"/>
        <path d="M9,11L9,6C9,4.354 10.354,3 12,3C13.646,3 15,4.354 15,6L15,11" style="fill:none;fill-rule:nonzero;stroke:rgb(172,126,244);stroke-width:2px;"/>
    </g>
</svg>
