<svg xmlns="http://www.w3.org/2000/svg" width="210" height="90" fill="none"><g fill="#000" clip-path="url(#a)"><path d="M81.41 30.085c17.356 2.012 17.676 28.065-.43 29.817-20.834 2.016-22.948-27.722-3.816-29.817 1.005-.11 3.248-.116 4.246 0Zm-2.976 4.957c-14.106 1.226-10.677 23.003 3.25 19.624 11.673-2.832 8.775-20.67-3.25-19.624ZM146.166 30.085c18.699 1.966 17.43 30.736-2.799 29.86-18.98-.822-19.213-27.964-1.181-29.86.988-.104 2.992-.104 3.98 0Zm-2.705 4.962c-14.827 1.01-10.19 24.503 4.212 19.27 10.61-3.854 7.187-20.047-4.212-19.27ZM114.85 30.085c4.727.583 8.758 5.319 8.758 9.906v19.427h-5.574V40.505c0-.216-.777-2.333-.955-2.676-2.14-4.097-8.79-3.48-10.869.475-.194.37-.915 2.202-.915 2.458v18.655h-5.573V30.6h5.308l.132 3.087c1.18-1.922 3.998-3.337 6.238-3.601.8-.095 2.654-.099 3.45 0Z" style="fill:#000;fill-opacity:1"/><path d="M174.299 30.085c3.928 1.119 7.056 4.04 6.9 8.234h-5.574c.212-4.485-6.843-4.399-6.086.37.416 2.622 4.537 3.002 6.612 3.88 2.851 1.206 5.437 3.582 5.815 6.713 1.602 13.226-18.096 14.5-19.08 1.901h5.839c.132 6.237 9.91 4.03 7.482-1.465-1.197-2.71-7.014-3.213-9.608-5.35-5.29-4.363-2.38-13.037 4.249-14.284h3.451ZM195 30.6v5.403h-5.573v-5.017c1.504-.845 3.812-.18 5.573-.386ZM195 54.015v5.404c-1.761-.206-4.069.46-5.573-.386v-5.018H195ZM195 42.435h-5.573v5.147H195v-5.147ZM39.743 30.6v19.555L54.473 30.6h4.113v28.82h-5.308V40.892L39.345 59.42H34.17V40.635L20.503 59.419H14l21.364-28.82h4.38Z" style="fill:#000;fill-opacity:1"/></g><defs><clipPath id="a"><path fill="#fff" d="M0 0h181v30H0z" style="fill:#fff;fill-opacity:1" transform="translate(14 30)"/></clipPath></defs></svg>