<svg width="210" height="90" viewBox="0 0 210 90" fill="none" xmlns="http://www.w3.org/2000/svg">
<path fill-rule="evenodd" clip-rule="evenodd" d="M59.1457 44.8431H58.2247C56.5866 44.8431 55.2576 46.0858 55.2576 47.749C55.2576 49.0983 55.6655 50.6548 57.4025 50.6548C58.9355 50.6548 59.2446 49.4121 59.2446 48.1632V45.0502C59.2446 45.0502 59.3497 44.8431 59.1457 44.8431ZM105.736 60H102.515C100.203 59.7176 98.2004 58.8264 98.2004 56.6799C98.2004 55.1234 99.9374 53.9812 101.372 53.7741C101.372 53.7741 101.779 53.6736 101.372 53.6736C100.858 53.5669 98.1015 53.3598 97.1805 53.5669C97.1805 53.5669 96.9765 53.5669 96.8714 53.3598C96.7725 53.1527 96.2594 51.6967 96.1543 51.5962C96.0554 51.3891 96.2532 51.2824 96.2532 51.2824C98.2993 50.9686 100.141 49.9331 100.957 49.6192C101.47 49.5188 100.957 49.4121 100.957 49.4121C98.0953 48.8912 95.2333 46.9205 95.2333 43.4937C95.2333 38.6172 99.2203 36.4331 103.003 36.4331C104.74 36.4331 105.767 36.7469 106.681 36.8473C106.681 36.8473 106.78 36.954 106.885 36.7469C106.885 36.4331 107.188 35.6046 107.188 35.6046C107.596 34.3619 108.208 33.841 110.05 33.841C110.458 33.841 110.866 33.841 111.175 33.9477C111.175 33.9477 111.379 33.841 111.379 34.1548C111.274 34.2552 110.662 36.7469 110.662 36.8536C110.563 37.1674 110.458 36.9603 110.458 36.9603C110.149 36.7531 110.05 36.6464 109.333 36.7531C108.925 36.7531 108.721 37.0669 108.721 37.4812C108.721 38.2092 111.991 39.2448 111.991 43.1925C111.991 48.4895 107.188 49.6255 102.997 50.6674C102.997 50.6674 102.589 50.7678 102.997 50.7678C105.76 51.0816 111.484 51.8033 111.484 55.4372C111.491 58.4937 108.128 59.6736 105.736 60ZM65.6857 51.59H66.5017C66.7057 51.59 66.7057 51.7971 66.7057 51.7971V53.4603C66.7057 53.7741 66.3966 53.6674 66.3966 53.6674H59.8628C59.8628 53.6674 59.7577 53.6674 59.7577 53.4603C59.6588 53.046 59.4486 52.6318 59.4486 52.318C59.3497 51.9038 59.1395 52.318 59.1395 52.318C57.8105 53.3536 56.2775 54.1883 54.4354 54.1883C51.3694 54.1883 49.0143 52.2176 49.0143 48.9979C49.0143 45.0502 51.4683 42.8724 54.5343 42.8724L59.2384 42.6653V41.9372C59.2384 40.5879 58.5214 39.9665 56.9884 39.9665C55.0474 39.9665 54.1263 40.6946 53.2053 41.8368C53.2053 41.8368 53.2053 41.9372 53.0013 41.9372C52.7973 41.8368 51.1592 41.2092 51.1592 41.2092C51.1592 41.2092 50.9552 41.2092 51.0603 41.0021C51.1654 40.795 53.2053 35.8117 53.2053 35.8117C53.2053 35.8117 53.2053 35.6046 53.3042 35.7113C53.6133 35.8117 54.8372 36.2322 55.1463 36.2322C55.3503 36.3326 55.2452 36.546 55.2452 36.546L55.0412 36.9603C54.9423 37.3745 55.1401 37.1674 55.1401 37.1674C56.4691 36.6464 57.7981 36.4393 59.1272 36.4393C63.0153 36.4393 65.5683 38.1025 65.5683 42.1506V51.2887C65.5868 51.2824 65.5868 51.59 65.6857 51.59ZM66.0937 37.682C68.7517 36.954 71.0018 35.1904 72.1268 32.6987C72.1268 32.6987 72.1268 32.5983 72.3308 32.5983C72.5348 32.5983 73.8638 32.9121 74.0678 32.9121C74.2718 33.0126 74.1667 33.1192 74.1667 33.1192C74.0678 33.9477 73.9627 34.8828 73.9627 35.6109V36.8536C73.9627 37.0607 74.1667 36.9603 74.1667 36.9603H76.936C77.14 36.9603 77.0349 37.1674 77.0349 37.1674C77.0349 37.1674 76.627 39.2448 76.627 39.4519C76.528 39.659 76.423 39.659 76.423 39.659H74.1729C73.9689 39.659 73.9689 39.7657 73.9689 39.7657V49.4184C73.9689 50.5607 74.8899 50.7678 75.403 50.7678C75.9161 50.7678 76.015 50.7678 76.423 50.5607C76.423 50.5607 76.627 50.3536 76.627 50.5607C76.7259 50.7678 77.2389 52.1172 77.344 52.3243C77.4429 52.4247 77.2389 52.5314 77.2389 52.5314C75.0939 54.0879 74.89 54.1946 72.0217 54.1946C68.8506 54.1946 67.7256 52.6381 67.7256 49.7322V39.7657C67.7256 39.7657 67.7256 39.659 67.5216 39.659H66.0875C66.0875 39.659 65.9824 39.659 65.9824 39.4519V37.8954C65.9948 37.7824 66.0937 37.682 66.0937 37.682ZM112.721 45.2573C112.721 39.8598 116.912 36.4331 122.438 36.4331C127.958 36.4331 132.254 39.8598 132.254 45.2573C132.254 50.8619 127.958 54.182 122.438 54.182C116.912 54.1883 112.721 50.8682 112.721 45.2573ZM119.057 42.8724C119.057 45.364 120.077 51.59 123.557 51.59C125.399 51.59 125.906 49.6192 125.906 47.749C125.906 45.2573 124.886 39.0314 121.307 39.0314C119.057 39.0314 119.057 41.6234 119.057 42.8724ZM151.676 53.6674H143.09C143.09 53.6674 142.991 53.6674 142.991 53.5607V51.7971C142.991 51.59 143.195 51.59 143.195 51.59H144.215C144.32 51.59 144.32 51.4895 144.32 51.4895V42.0439C144.32 41.0084 143.399 40.5879 142.478 40.5879C141.353 40.5879 140.537 41.1088 139.715 41.8305C139.715 41.8305 139.616 41.931 139.616 42.0377V51.4833C139.616 51.4833 139.616 51.5837 139.715 51.5837H140.84C140.84 51.5837 140.939 51.5837 140.939 51.7908V53.5544C140.939 53.6611 140.84 53.6611 140.84 53.6611H132.254C132.254 53.6611 132.155 53.7615 132.155 53.454V51.7908C132.155 51.5837 132.254 51.5837 132.254 51.5837H133.175C133.379 51.5837 133.28 51.4833 133.28 51.4833V40.3745C133.28 40.3745 133.379 40.1674 133.175 40.1674L132.254 40.4812C132.254 40.4812 132.155 40.5816 132.155 40.3808V38.6172C132.155 38.41 132.254 38.5167 132.254 38.5167L139.511 36.546C139.511 36.546 139.715 36.4456 139.715 36.6464V39.0377C139.715 39.3515 139.82 39.1381 139.82 39.1381C141.557 37.7887 143.294 36.4393 145.649 36.4393C150.045 36.4393 150.663 39.4519 150.663 41.3159V51.4895C150.663 51.4895 150.564 51.59 150.762 51.59H151.683C151.683 51.59 151.782 51.59 151.782 51.7971V53.4603C151.775 53.7741 151.676 53.6674 151.676 53.6674ZM160.368 36.5397L153.111 38.5105C153.111 38.5105 153.012 38.5105 153.012 38.7176V40.3808C153.012 40.5879 153.216 40.4812 153.216 40.4812C153.216 40.4812 153.729 40.3808 154.137 40.2741C154.341 40.2741 154.236 40.4812 154.236 40.5879V51.4895C154.236 51.4895 154.341 51.59 154.137 51.59H153.117C153.117 51.59 152.913 51.59 152.913 51.7971V53.5607C152.913 53.7678 153.117 53.6674 153.117 53.6674H161.604C161.808 53.6674 161.703 53.4603 161.703 53.4603V51.7971C161.703 51.59 161.499 51.59 161.499 51.59H160.683C160.479 51.59 160.584 51.4895 160.584 51.4895V36.6464C160.572 36.4331 160.368 36.5397 160.368 36.5397ZM157.808 31.3494C159.243 31.3494 160.874 31.7636 160.874 33.5272C160.874 35.6046 158.118 36.4331 156.381 36.4331C154.946 36.4331 154.025 35.705 154.025 34.2552C154.025 32.5921 156.275 31.3494 157.808 31.3494ZM87.5682 44.8431H86.7522C85.0152 44.8431 83.7851 46.0858 83.7851 47.749C83.7851 49.0983 84.1931 50.6548 85.8312 50.6548C87.4693 50.6548 87.7722 49.4121 87.7722 48.1632V45.0502C87.7722 45.0502 87.7722 44.8431 87.5682 44.8431ZM94.2133 51.59H94.9304C95.2395 51.59 95.2395 51.7971 95.2395 51.7971V53.4603C95.2395 53.7741 94.9304 53.6674 94.9304 53.6674H88.3841C88.3841 53.6674 88.279 53.6674 88.1801 53.4603C88.0812 53.046 87.9762 52.6318 87.9762 52.318C87.8773 51.9038 87.6671 52.318 87.6671 52.318C86.233 53.3536 84.8051 54.1883 82.963 54.1883C79.7919 54.1883 77.4429 52.2176 77.4429 48.9979C77.4429 45.0502 79.9959 42.772 83.0681 42.772L87.6671 42.6653C87.6671 42.6653 87.766 42.6653 87.766 42.4582V41.9372C87.766 40.5879 87.0489 39.9665 85.5159 39.9665C83.5749 39.9665 82.6539 40.6946 81.7329 41.8368C81.7329 41.8368 81.634 41.9372 81.5289 41.8368C81.3249 41.8368 79.5879 41.2155 79.5879 41.2155C79.5879 41.2155 79.489 41.2155 79.5879 41.0084C79.6868 40.8013 81.634 35.818 81.634 35.818C81.634 35.818 81.634 35.6109 81.8379 35.7176C82.0419 35.818 83.3709 36.2385 83.5749 36.2385C83.7789 36.3389 83.6738 36.5523 83.6738 36.5523C83.6738 36.5523 83.6738 36.7594 83.5749 36.9665C83.3709 37.3808 83.6738 37.1736 83.6738 37.1736C85.0029 36.6527 86.3319 36.4456 87.6609 36.4456C91.5491 36.4456 94.1021 38.1088 94.1021 42.1569V51.295C94.1083 51.2824 94.0094 51.59 94.2133 51.59ZM100.964 40.9017C100.964 42.772 101.983 47.8556 104.543 47.8556C105.872 47.8556 106.385 47.2343 106.385 45.5711C106.385 43.7008 105.26 38.6172 102.707 38.6172C101.47 38.6172 100.964 39.2385 100.964 40.9017ZM103.622 54.4958C103.312 54.8096 103.108 55.9519 103.108 56.6736C103.108 57.5021 103.516 58.4372 104.543 58.4372C105.359 58.4372 105.872 58.023 105.872 57.1946C105.872 55.6381 104.951 55.1172 103.826 54.3891C103.826 54.3954 103.72 54.3954 103.622 54.4958ZM171.816 44.8431H171C169.263 44.8431 168.033 46.0858 168.033 47.749C168.033 49.0983 168.441 50.6548 170.079 50.6548C171.717 50.6548 172.02 49.4121 172.02 48.1632V45.0502C172.02 45.0502 172.02 44.8431 171.816 44.8431ZM178.461 51.59H179.277C179.481 51.59 179.481 51.7971 179.481 51.7971V53.4603C179.481 53.7741 179.172 53.6674 179.172 53.6674H172.625C172.625 53.6674 172.527 53.6674 172.421 53.4603C172.323 53.046 172.217 52.6318 172.217 52.318C172.119 51.9038 171.908 52.318 171.908 52.318C170.474 53.3536 169.046 54.1883 167.204 54.1883C164.033 54.1883 161.684 52.2176 161.684 48.9979C161.684 45.0502 164.237 42.772 167.309 42.772L171.908 42.6653C171.908 42.6653 172.014 42.6653 172.014 42.4582V41.9372C172.014 40.5879 171.296 39.9665 169.763 39.9665C167.822 39.9665 166.901 40.6946 165.98 41.8368C165.98 41.8368 165.881 41.9372 165.776 41.8368C165.572 41.8368 163.934 41.2155 163.934 41.2155C163.934 41.2155 163.73 41.2155 163.835 41.0084C163.934 40.8013 165.881 35.818 165.881 35.818C165.881 35.818 165.881 35.6109 166.085 35.7176C166.289 35.818 167.618 36.2385 167.822 36.2385C168.026 36.3389 168.026 36.546 168.026 36.546L167.822 36.9603C167.618 37.3745 167.921 37.1674 167.921 37.1674C169.25 36.6464 170.579 36.4393 171.908 36.4393C175.797 36.4393 178.35 38.1025 178.35 42.1506V51.2887C178.362 51.2824 178.362 51.59 178.461 51.59ZM37.5723 40.4874V48.8975C37.5723 50.3536 38.0854 51.5962 39.7173 51.5962C41.7634 51.5962 42.6844 50.3473 42.6844 46.5063C42.6844 40.3808 39.6184 40.0732 38.5923 40.0732L37.7763 40.1736C37.7763 40.1736 37.5723 40.2741 37.5723 40.4874ZM37.6712 37.9958C39.2042 37.0607 40.3293 36.4393 41.8623 36.4393C45.8493 36.4393 49.0204 39.7594 49.0204 44.6423C49.0204 49.4184 46.0533 54.1946 40.9412 54.1946C39.9213 54.1946 38.5923 54.0941 37.6712 53.5732C37.6712 53.5732 37.5723 53.5732 37.5723 53.6799V56.6862C37.5723 56.6862 37.5723 56.8933 37.7763 56.8933H39.6184C39.6184 56.8933 39.8224 56.8933 39.8224 57.1004V58.7573C39.8224 58.864 39.6184 58.9644 39.6184 58.9644H30.3091C30.3091 58.9644 30 58.9644 30 58.7573V57.0502C30 56.8431 30.204 56.8431 30.204 56.8431H31.0199C31.2239 56.8431 31.2239 56.636 31.2239 56.636V40.3368C31.2239 40.1297 31.0199 40.2364 31.0199 40.2364L30.2041 40.4435C30.2041 40.4435 30.0001 40.4435 30.0001 40.2364V38.592C30.0001 38.3849 30.2041 38.3849 30.2041 38.3849L37.3622 36.5146C37.3622 36.5146 37.5662 36.4142 37.5662 36.6151V37.8577C37.5724 38.0962 37.6712 37.9958 37.6712 37.9958ZM175.5 32.2845C175.5 31.0356 176.52 30 177.75 30C178.98 30 180 31.0356 180 32.2845C180 33.6339 178.98 34.6695 177.75 34.6695C176.52 34.6695 175.5 33.6339 175.5 32.2845ZM179.691 32.2845C179.691 31.249 178.875 30.3138 177.75 30.3138C176.625 30.3138 175.704 31.249 175.704 32.2845C175.704 33.4268 176.625 34.3619 177.75 34.3619C178.875 34.3619 179.691 33.4268 179.691 32.2845ZM178.869 33.6339H178.461L177.744 32.3912H177.231V33.6339H176.922V31.0418H177.942C178.146 31.0418 178.455 31.0418 178.554 31.1485C178.758 31.249 178.856 31.5628 178.856 31.7699C178.856 32.1841 178.554 32.3912 178.04 32.3912L178.869 33.6339ZM177.645 32.1778C178.053 32.1778 178.566 32.2782 178.566 31.7636C178.566 31.3494 178.257 31.2427 177.954 31.2427H177.237V32.1778H177.645Z" fill="black"/>
</svg>
